<mxfile host="65bd71144e">
    <diagram id="MQf6bn77YmY3BxwNJZ0i" name="Page-1">
        <mxGraphModel dx="206" dy="524" grid="1" gridSize="10" guides="1" tooltips="1" connect="1" arrows="1" fold="1" page="1" pageScale="1" pageWidth="850" pageHeight="1100" background="#ffffff" math="0" shadow="0">
            <root>
                <mxCell id="0"/>
                <mxCell id="1" parent="0"/>
                <mxCell id="Wqetf2JTwrelO_5sCt5Z-14" style="edgeStyle=orthogonalEdgeStyle;rounded=0;orthogonalLoop=1;jettySize=auto;html=1;exitX=0.666;exitY=0.001;exitDx=0;exitDy=0;exitPerimeter=0;" parent="1" source="Wqetf2JTwrelO_5sCt5Z-1" target="Wqetf2JTwrelO_5sCt5Z-9" edge="1">
                    <mxGeometry relative="1" as="geometry">
                        <mxPoint x="558" y="230" as="sourcePoint"/>
                        <mxPoint x="559" y="172" as="targetPoint"/>
                    </mxGeometry>
                </mxCell>
                <mxCell id="Wqetf2JTwrelO_5sCt5Z-1" value="" style="rounded=0;whiteSpace=wrap;html=1;glass=0;shadow=0;" parent="1" vertex="1">
                    <mxGeometry x="180" y="230" width="570" height="340" as="geometry"/>
                </mxCell>
                <mxCell id="Wqetf2JTwrelO_5sCt5Z-2" value="&lt;u&gt;REST CLIENT&lt;br&gt;&lt;br&gt;&lt;/u&gt;&lt;div&gt;&lt;span&gt;&lt;div style=&quot;text-align: left&quot;&gt;&lt;span&gt;- algod v2&lt;/span&gt;&lt;/div&gt;&lt;div style=&quot;text-align: left&quot;&gt;&lt;span&gt;- kmd&lt;/span&gt;&lt;/div&gt;&lt;/span&gt;&lt;span&gt;&lt;div style=&quot;text-align: left&quot;&gt;&lt;span&gt;- indexer&lt;/span&gt;&lt;/div&gt;&lt;/span&gt;&lt;/div&gt;" style="rounded=1;whiteSpace=wrap;html=1;" parent="1" vertex="1">
                    <mxGeometry x="200" y="250" width="150" height="110" as="geometry"/>
                </mxCell>
                <mxCell id="Wqetf2JTwrelO_5sCt5Z-3" value="&lt;u&gt;Transaction Utils&lt;/u&gt;&lt;u&gt;&lt;br&gt;&lt;/u&gt;&lt;br&gt;&lt;div style=&quot;text-align: left&quot;&gt;&lt;span&gt;- Payment&lt;/span&gt;&lt;/div&gt;&lt;div style=&quot;text-align: left&quot;&gt;&lt;span&gt;- Key Registration&lt;/span&gt;&lt;/div&gt;&lt;div style=&quot;text-align: left&quot;&gt;&lt;span&gt;- Asset Config&lt;/span&gt;&lt;/div&gt;&lt;div style=&quot;text-align: left&quot;&gt;&lt;span&gt;- etc&lt;/span&gt;&lt;/div&gt;" style="rounded=1;whiteSpace=wrap;html=1;" parent="1" vertex="1">
                    <mxGeometry x="200" y="402" width="150" height="140" as="geometry"/>
                </mxCell>
                <mxCell id="Wqetf2JTwrelO_5sCt5Z-4" value="&lt;u&gt;Encoding Utilities&lt;/u&gt;&lt;br&gt;&lt;br&gt;&lt;div style=&quot;text-align: left&quot;&gt;&lt;span&gt;- MessagePack&lt;/span&gt;&lt;/div&gt;&lt;div style=&quot;text-align: left&quot;&gt;&lt;span&gt;- JSON&lt;/span&gt;&lt;/div&gt;&lt;div style=&quot;text-align: left&quot;&gt;&lt;span&gt;- ARC-4 ABI&lt;/span&gt;&lt;/div&gt;" style="rounded=1;whiteSpace=wrap;html=1;" parent="1" vertex="1">
                    <mxGeometry x="370" y="250" width="150" height="80" as="geometry"/>
                </mxCell>
                <mxCell id="Wqetf2JTwrelO_5sCt5Z-5" value="&lt;div&gt;&lt;u&gt;Crypto Utilities&lt;/u&gt;&lt;/div&gt;&lt;div&gt;&lt;br&gt;&lt;/div&gt;&lt;div style=&quot;text-align: left&quot;&gt;&lt;span&gt;- ed25519&lt;/span&gt;&lt;/div&gt;&lt;div style=&quot;text-align: left&quot;&gt;&lt;span&gt;- Mnemonics&lt;/span&gt;&lt;/div&gt;&lt;div style=&quot;text-align: left&quot;&gt;&lt;span&gt;- Multisig&lt;/span&gt;&lt;/div&gt;" style="rounded=1;whiteSpace=wrap;html=1;align=center;" parent="1" vertex="1">
                    <mxGeometry x="370" y="336" width="150" height="86" as="geometry"/>
                </mxCell>
                <mxCell id="Wqetf2JTwrelO_5sCt5Z-6" value="&lt;u&gt;dApp Testing&lt;br&gt;&lt;br&gt;&lt;/u&gt;&lt;div style=&quot;text-align: left&quot;&gt;&lt;span&gt;- Dryrun Helpers&lt;/span&gt;&lt;/div&gt;&lt;div style=&quot;text-align: left&quot;&gt;&lt;span&gt;- Simulate&lt;/span&gt;&lt;/div&gt;" style="rounded=1;whiteSpace=wrap;html=1;" parent="1" vertex="1">
                    <mxGeometry x="540" y="250" width="190" height="80" as="geometry"/>
                </mxCell>
                <mxCell id="Wqetf2JTwrelO_5sCt5Z-7" value="&lt;u&gt;SDK&amp;nbsp; Testing&lt;/u&gt;&lt;br&gt;&lt;div style=&quot;text-align: left&quot;&gt;&lt;ul&gt;&lt;li&gt;&lt;span&gt;Cucumber Framework (unit/integration tests)&lt;br&gt;&lt;/span&gt;&lt;/li&gt;&lt;li&gt;&lt;span&gt;Setup script&lt;/span&gt;&lt;/li&gt;&lt;ul&gt;&lt;li&gt;&lt;span&gt;install feature files&lt;/span&gt;&lt;/li&gt;&lt;li&gt;run Sandbox up&lt;/li&gt;&lt;/ul&gt;&lt;li&gt;&lt;span&gt;SDK Dockerfile&lt;br&gt;&lt;/span&gt;&lt;/li&gt;&lt;li&gt;Containerized test execution&lt;/li&gt;&lt;/ul&gt;&lt;/div&gt;" style="rounded=1;whiteSpace=wrap;html=1;" parent="1" vertex="1">
                    <mxGeometry x="540" y="340" width="190" height="200" as="geometry"/>
                </mxCell>
                <mxCell id="Wqetf2JTwrelO_5sCt5Z-16" style="edgeStyle=orthogonalEdgeStyle;rounded=0;orthogonalLoop=1;jettySize=auto;html=1;entryX=0.5;entryY=1;entryDx=0;entryDy=0;" parent="1" source="Wqetf2JTwrelO_5sCt5Z-8" target="Wqetf2JTwrelO_5sCt5Z-10" edge="1">
                    <mxGeometry relative="1" as="geometry"/>
                </mxCell>
                <mxCell id="Wqetf2JTwrelO_5sCt5Z-8" value="algod" style="rounded=0;whiteSpace=wrap;html=1;shadow=0;glass=0;" parent="1" vertex="1">
                    <mxGeometry x="272.5" y="110" width="120" height="60" as="geometry"/>
                </mxCell>
                <mxCell id="Wqetf2JTwrelO_5sCt5Z-15" style="edgeStyle=orthogonalEdgeStyle;rounded=0;orthogonalLoop=1;jettySize=auto;html=1;entryX=0.5;entryY=1;entryDx=0;entryDy=0;" parent="1" source="Wqetf2JTwrelO_5sCt5Z-9" target="Wqetf2JTwrelO_5sCt5Z-12" edge="1">
                    <mxGeometry relative="1" as="geometry"/>
                </mxCell>
                <mxCell id="Wqetf2JTwrelO_5sCt5Z-17" style="edgeStyle=orthogonalEdgeStyle;rounded=0;orthogonalLoop=1;jettySize=auto;html=1;entryX=1;entryY=0.5;entryDx=0;entryDy=0;" parent="1" source="Wqetf2JTwrelO_5sCt5Z-9" target="Wqetf2JTwrelO_5sCt5Z-8" edge="1">
                    <mxGeometry relative="1" as="geometry"/>
                </mxCell>
                <mxCell id="Wqetf2JTwrelO_5sCt5Z-9" value="Indexer" style="rounded=0;whiteSpace=wrap;html=1;shadow=0;glass=0;" parent="1" vertex="1">
                    <mxGeometry x="499.5" y="110" width="120" height="60" as="geometry"/>
                </mxCell>
                <mxCell id="Wqetf2JTwrelO_5sCt5Z-10" value="Blockchain" style="shape=cylinder;whiteSpace=wrap;html=1;boundedLbl=1;backgroundOutline=1;rounded=0;shadow=0;glass=0;" parent="1" vertex="1">
                    <mxGeometry x="287.5" y="20" width="90" height="50" as="geometry"/>
                </mxCell>
                <mxCell id="Wqetf2JTwrelO_5sCt5Z-12" value="Database" style="shape=cylinder;whiteSpace=wrap;html=1;boundedLbl=1;backgroundOutline=1;rounded=0;shadow=0;glass=0;" parent="1" vertex="1">
                    <mxGeometry x="514.5" y="20" width="90" height="50" as="geometry"/>
                </mxCell>
                <mxCell id="Wqetf2JTwrelO_5sCt5Z-13" value="" style="endArrow=classic;html=1;exitX=0.267;exitY=0.003;exitDx=0;exitDy=0;entryX=0.5;entryY=1;entryDx=0;entryDy=0;exitPerimeter=0;" parent="1" source="Wqetf2JTwrelO_5sCt5Z-1" target="Wqetf2JTwrelO_5sCt5Z-8" edge="1">
                    <mxGeometry width="50" height="50" relative="1" as="geometry">
                        <mxPoint x="400" y="250" as="sourcePoint"/>
                        <mxPoint x="450" y="200" as="targetPoint"/>
                    </mxGeometry>
                </mxCell>
                <mxCell id="2" value="&lt;div&gt;&lt;u&gt;Enriched Interaction&lt;/u&gt;&lt;/div&gt;&lt;div&gt;&lt;br&gt;&lt;/div&gt;&lt;div style=&quot;text-align: left&quot;&gt;&lt;span&gt;- Wallet utils&lt;/span&gt;&lt;/div&gt;&lt;div style=&quot;text-align: left&quot;&gt;&lt;span&gt;- Atomic Txn Composer&lt;/span&gt;&lt;/div&gt;&lt;div style=&quot;text-align: left&quot;&gt;&lt;span&gt;- Smart Signatures&lt;/span&gt;&lt;/div&gt;" style="rounded=1;whiteSpace=wrap;html=1;align=center;" parent="1" vertex="1">
                    <mxGeometry x="370" y="430" width="150" height="110" as="geometry"/>
                </mxCell>
            </root>
        </mxGraphModel>
    </diagram>
</mxfile>